<svg width="17" height="17" viewBox="0 0 17 17" fill="none" xmlns="http://www.w3.org/2000/svg">
<path d="M7.60326 0.816986C7.97008 0.0737399 9.02992 0.07374 9.39674 0.816986L11.2063 4.48347C11.3519 4.77862 11.6335 4.98319 11.9592 5.03051L16.0054 5.61846C16.8256 5.73765 17.1531 6.74562 16.5596 7.32416L13.6318 10.1781C13.3961 10.4079 13.2885 10.7389 13.3442 11.0632L14.0353 15.0931C14.1754 15.91 13.318 16.533 12.5844 16.1473L8.96534 14.2446C8.67402 14.0915 8.32598 14.0915 8.03466 14.2446L4.41562 16.1473C3.68199 16.533 2.82456 15.91 2.96467 15.0931L3.65585 11.0632C3.71148 10.7389 3.60393 10.4079 3.36825 10.1781L0.440385 7.32416C-0.153133 6.74562 0.174378 5.73765 0.994598 5.61846L5.04081 5.03051C5.36652 4.98319 5.64808 4.77862 5.79374 4.48347L7.60326 0.816986Z" fill="#2B2B2B"/>
</svg>
